<svg width="17" height="17" viewBox="0 0 17 17" fill="none" xmlns="http://www.w3.org/2000/svg">
<g id="Vector">
<mask id="path-1-inside-1_722_732" fill="white">
<path d="M7.91091 2.25955V0.589703C7.91091 0.478985 7.95489 0.372802 8.03318 0.294513C8.11147 0.216224 8.21765 0.172241 8.32837 0.172241C8.43909 0.172241 8.54527 0.216224 8.62356 0.294513C8.70185 0.372802 8.74583 0.478985 8.74583 0.589703V2.25955C8.74583 2.37027 8.70185 2.47645 8.62356 2.55474C8.54527 2.63303 8.43909 2.67701 8.32837 2.67701C8.21765 2.67701 8.11147 2.63303 8.03318 2.55474C7.95489 2.47645 7.91091 2.37027 7.91091 2.25955ZM12.6421 8.38232C12.6421 9.23551 12.3891 10.0695 11.9151 10.7789C11.4411 11.4883 10.7674 12.0412 9.97918 12.3677C9.19094 12.6942 8.32358 12.7797 7.48679 12.6132C6.65 12.4468 5.88136 12.0359 5.27807 11.4326C4.67478 10.8293 4.26393 10.0607 4.09748 9.2239C3.93104 8.38711 4.01646 7.51975 4.34296 6.73151C4.66946 5.94328 5.22237 5.26956 5.93177 4.79555C6.64116 4.32155 7.47519 4.06855 8.32837 4.06855C9.47206 4.06984 10.5685 4.52474 11.3772 5.33345C12.186 6.14216 12.6409 7.23864 12.6421 8.38232ZM11.8072 8.38232C11.8072 7.69427 11.6032 7.02167 11.2209 6.44958C10.8387 5.87749 10.2953 5.43159 9.65967 5.16829C9.02399 4.90498 8.32451 4.83609 7.64968 4.97032C6.97485 5.10455 6.35498 5.43588 5.86845 5.92241C5.38193 6.40893 5.0506 7.0288 4.91637 7.70363C4.78213 8.37846 4.85103 9.07794 5.11433 9.71362C5.37764 10.3493 5.82353 10.8926 6.39562 11.2749C6.96772 11.6571 7.64032 11.8612 8.32837 11.8612C9.25068 11.8601 10.1349 11.4932 10.7871 10.841C11.4392 10.1888 11.8061 9.30463 11.8072 8.38232ZM3.58044 4.2244C3.61865 4.26542 3.66474 4.29832 3.71595 4.32113C3.76716 4.34395 3.82244 4.35622 3.87849 4.35721C3.93454 4.3582 3.99022 4.34789 4.0422 4.32689C4.09418 4.30589 4.1414 4.27464 4.18105 4.235C4.22069 4.19536 4.25194 4.14814 4.27293 4.09616C4.29393 4.04418 4.30424 3.9885 4.30325 3.93245C4.30226 3.87639 4.29 3.82111 4.26718 3.76991C4.24436 3.7187 4.21146 3.67261 4.17045 3.63439L3.05722 2.52116C2.97808 2.44742 2.87341 2.40727 2.76526 2.40918C2.65711 2.41109 2.55392 2.4549 2.47743 2.53139C2.40095 2.60788 2.35714 2.71106 2.35523 2.81922C2.35332 2.92737 2.39346 3.03204 2.4672 3.11117L3.58044 4.2244ZM3.58044 12.5402L2.4672 13.6535C2.42619 13.6917 2.39329 13.7378 2.37048 13.789C2.34766 13.8402 2.33539 13.8955 2.3344 13.9515C2.33341 14.0076 2.34372 14.0633 2.36472 14.1152C2.38572 14.1672 2.41697 14.2144 2.45661 14.2541C2.49625 14.2937 2.54347 14.325 2.59545 14.346C2.64743 14.367 2.70311 14.3773 2.75916 14.3763C2.81522 14.3753 2.87049 14.363 2.9217 14.3402C2.97291 14.3174 3.019 14.2845 3.05722 14.2435L4.17045 13.1303C4.21146 13.092 4.24436 13.046 4.26718 12.9947C4.29 12.9435 4.30226 12.8883 4.30325 12.8322C4.30424 12.7761 4.29393 12.7205 4.27293 12.6685C4.25194 12.6165 4.22069 12.5693 4.18105 12.5296C4.1414 12.49 4.09418 12.4588 4.0422 12.4378C3.99022 12.4168 3.93454 12.4065 3.87849 12.4074C3.82244 12.4084 3.76716 12.4207 3.71595 12.4435C3.66474 12.4663 3.61865 12.4992 3.58044 12.5402ZM12.7813 4.34686C12.892 4.34676 12.9981 4.30272 13.0763 4.2244L14.1895 3.11117C14.2633 3.03204 14.3034 2.92737 14.3015 2.81922C14.2996 2.71106 14.2558 2.60788 14.1793 2.53139C14.1028 2.4549 13.9996 2.41109 13.8915 2.40918C13.7833 2.40727 13.6787 2.44742 13.5995 2.52116L12.4863 3.63439C12.428 3.69277 12.3883 3.76712 12.3722 3.84806C12.3561 3.92899 12.3644 4.01287 12.396 4.0891C12.4275 4.16534 12.481 4.23051 12.5496 4.27639C12.6181 4.32226 12.6988 4.34679 12.7813 4.34686ZM13.0763 12.5402C12.9972 12.4665 12.8925 12.4264 12.7843 12.4283C12.6762 12.4302 12.573 12.474 12.4965 12.5505C12.42 12.627 12.3762 12.7301 12.3743 12.8383C12.3724 12.9465 12.4125 13.0511 12.4863 13.1303L13.5995 14.2435C13.6787 14.3172 13.7833 14.3574 13.8915 14.3555C13.9996 14.3536 14.1028 14.3097 14.1793 14.2333C14.2558 14.1568 14.2996 14.0536 14.3015 13.9454C14.3034 13.8373 14.2633 13.7326 14.1895 13.6535L13.0763 12.5402ZM2.62306 8.38232C2.62306 8.27161 2.57907 8.16542 2.50079 8.08713C2.4225 8.00884 2.31631 7.96486 2.2056 7.96486H0.535748C0.42503 7.96486 0.318847 8.00884 0.240558 8.08713C0.162269 8.16542 0.118286 8.27161 0.118286 8.38232C0.118286 8.49304 0.162269 8.59923 0.240558 8.67751C0.318847 8.7558 0.42503 8.79979 0.535748 8.79979H2.2056C2.31631 8.79979 2.4225 8.7558 2.50079 8.67751C2.57907 8.59923 2.62306 8.49304 2.62306 8.38232ZM8.32837 14.0876C8.21765 14.0876 8.11147 14.1316 8.03318 14.2099C7.95489 14.2882 7.91091 14.3944 7.91091 14.5051V16.1749C7.91091 16.2857 7.95489 16.3918 8.03318 16.4701C8.11147 16.5484 8.21765 16.5924 8.32837 16.5924C8.43909 16.5924 8.54527 16.5484 8.62356 16.4701C8.70185 16.3918 8.74583 16.2857 8.74583 16.1749V14.5051C8.74583 14.3944 8.70185 14.2882 8.62356 14.2099C8.54527 14.1316 8.43909 14.0876 8.32837 14.0876ZM16.121 7.96486H14.4511C14.3404 7.96486 14.2342 8.00884 14.156 8.08713C14.0777 8.16542 14.0337 8.27161 14.0337 8.38232C14.0337 8.49304 14.0777 8.59923 14.156 8.67751C14.2342 8.7558 14.3404 8.79979 14.4511 8.79979H16.121C16.2317 8.79979 16.3379 8.7558 16.4162 8.67751C16.4945 8.59923 16.5385 8.49304 16.5385 8.38232C16.5385 8.27161 16.4945 8.16542 16.4162 8.08713C16.3379 8.00884 16.2317 7.96486 16.121 7.96486Z"/>
</mask>
<path d="M7.91091 2.25955V0.589703C7.91091 0.478985 7.95489 0.372802 8.03318 0.294513C8.11147 0.216224 8.21765 0.172241 8.32837 0.172241C8.43909 0.172241 8.54527 0.216224 8.62356 0.294513C8.70185 0.372802 8.74583 0.478985 8.74583 0.589703V2.25955C8.74583 2.37027 8.70185 2.47645 8.62356 2.55474C8.54527 2.63303 8.43909 2.67701 8.32837 2.67701C8.21765 2.67701 8.11147 2.63303 8.03318 2.55474C7.95489 2.47645 7.91091 2.37027 7.91091 2.25955ZM12.6421 8.38232C12.6421 9.23551 12.3891 10.0695 11.9151 10.7789C11.4411 11.4883 10.7674 12.0412 9.97918 12.3677C9.19094 12.6942 8.32358 12.7797 7.48679 12.6132C6.65 12.4468 5.88136 12.0359 5.27807 11.4326C4.67478 10.8293 4.26393 10.0607 4.09748 9.2239C3.93104 8.38711 4.01646 7.51975 4.34296 6.73151C4.66946 5.94328 5.22237 5.26956 5.93177 4.79555C6.64116 4.32155 7.47519 4.06855 8.32837 4.06855C9.47206 4.06984 10.5685 4.52474 11.3772 5.33345C12.186 6.14216 12.6409 7.23864 12.6421 8.38232ZM11.8072 8.38232C11.8072 7.69427 11.6032 7.02167 11.2209 6.44958C10.8387 5.87749 10.2953 5.43159 9.65967 5.16829C9.02399 4.90498 8.32451 4.83609 7.64968 4.97032C6.97485 5.10455 6.35498 5.43588 5.86845 5.92241C5.38193 6.40893 5.0506 7.0288 4.91637 7.70363C4.78213 8.37846 4.85103 9.07794 5.11433 9.71362C5.37764 10.3493 5.82353 10.8926 6.39562 11.2749C6.96772 11.6571 7.64032 11.8612 8.32837 11.8612C9.25068 11.8601 10.1349 11.4932 10.7871 10.841C11.4392 10.1888 11.8061 9.30463 11.8072 8.38232ZM3.58044 4.2244C3.61865 4.26542 3.66474 4.29832 3.71595 4.32113C3.76716 4.34395 3.82244 4.35622 3.87849 4.35721C3.93454 4.3582 3.99022 4.34789 4.0422 4.32689C4.09418 4.30589 4.1414 4.27464 4.18105 4.235C4.22069 4.19536 4.25194 4.14814 4.27293 4.09616C4.29393 4.04418 4.30424 3.9885 4.30325 3.93245C4.30226 3.87639 4.29 3.82111 4.26718 3.76991C4.24436 3.7187 4.21146 3.67261 4.17045 3.63439L3.05722 2.52116C2.97808 2.44742 2.87341 2.40727 2.76526 2.40918C2.65711 2.41109 2.55392 2.4549 2.47743 2.53139C2.40095 2.60788 2.35714 2.71106 2.35523 2.81922C2.35332 2.92737 2.39346 3.03204 2.4672 3.11117L3.58044 4.2244ZM3.58044 12.5402L2.4672 13.6535C2.42619 13.6917 2.39329 13.7378 2.37048 13.789C2.34766 13.8402 2.33539 13.8955 2.3344 13.9515C2.33341 14.0076 2.34372 14.0633 2.36472 14.1152C2.38572 14.1672 2.41697 14.2144 2.45661 14.2541C2.49625 14.2937 2.54347 14.325 2.59545 14.346C2.64743 14.367 2.70311 14.3773 2.75916 14.3763C2.81522 14.3753 2.87049 14.363 2.9217 14.3402C2.97291 14.3174 3.019 14.2845 3.05722 14.2435L4.17045 13.1303C4.21146 13.092 4.24436 13.046 4.26718 12.9947C4.29 12.9435 4.30226 12.8883 4.30325 12.8322C4.30424 12.7761 4.29393 12.7205 4.27293 12.6685C4.25194 12.6165 4.22069 12.5693 4.18105 12.5296C4.1414 12.49 4.09418 12.4588 4.0422 12.4378C3.99022 12.4168 3.93454 12.4065 3.87849 12.4074C3.82244 12.4084 3.76716 12.4207 3.71595 12.4435C3.66474 12.4663 3.61865 12.4992 3.58044 12.5402ZM12.7813 4.34686C12.892 4.34676 12.9981 4.30272 13.0763 4.2244L14.1895 3.11117C14.2633 3.03204 14.3034 2.92737 14.3015 2.81922C14.2996 2.71106 14.2558 2.60788 14.1793 2.53139C14.1028 2.4549 13.9996 2.41109 13.8915 2.40918C13.7833 2.40727 13.6787 2.44742 13.5995 2.52116L12.4863 3.63439C12.428 3.69277 12.3883 3.76712 12.3722 3.84806C12.3561 3.92899 12.3644 4.01287 12.396 4.0891C12.4275 4.16534 12.481 4.23051 12.5496 4.27639C12.6181 4.32226 12.6988 4.34679 12.7813 4.34686ZM13.0763 12.5402C12.9972 12.4665 12.8925 12.4264 12.7843 12.4283C12.6762 12.4302 12.573 12.474 12.4965 12.5505C12.42 12.627 12.3762 12.7301 12.3743 12.8383C12.3724 12.9465 12.4125 13.0511 12.4863 13.1303L13.5995 14.2435C13.6787 14.3172 13.7833 14.3574 13.8915 14.3555C13.9996 14.3536 14.1028 14.3097 14.1793 14.2333C14.2558 14.1568 14.2996 14.0536 14.3015 13.9454C14.3034 13.8373 14.2633 13.7326 14.1895 13.6535L13.0763 12.5402ZM2.62306 8.38232C2.62306 8.27161 2.57907 8.16542 2.50079 8.08713C2.4225 8.00884 2.31631 7.96486 2.2056 7.96486H0.535748C0.42503 7.96486 0.318847 8.00884 0.240558 8.08713C0.162269 8.16542 0.118286 8.27161 0.118286 8.38232C0.118286 8.49304 0.162269 8.59923 0.240558 8.67751C0.318847 8.7558 0.42503 8.79979 0.535748 8.79979H2.2056C2.31631 8.79979 2.4225 8.7558 2.50079 8.67751C2.57907 8.59923 2.62306 8.49304 2.62306 8.38232ZM8.32837 14.0876C8.21765 14.0876 8.11147 14.1316 8.03318 14.2099C7.95489 14.2882 7.91091 14.3944 7.91091 14.5051V16.1749C7.91091 16.2857 7.95489 16.3918 8.03318 16.4701C8.11147 16.5484 8.21765 16.5924 8.32837 16.5924C8.43909 16.5924 8.54527 16.5484 8.62356 16.4701C8.70185 16.3918 8.74583 16.2857 8.74583 16.1749V14.5051C8.74583 14.3944 8.70185 14.2882 8.62356 14.2099C8.54527 14.1316 8.43909 14.0876 8.32837 14.0876ZM16.121 7.96486H14.4511C14.3404 7.96486 14.2342 8.00884 14.156 8.08713C14.0777 8.16542 14.0337 8.27161 14.0337 8.38232C14.0337 8.49304 14.0777 8.59923 14.156 8.67751C14.2342 8.7558 14.3404 8.79979 14.4511 8.79979H16.121C16.2317 8.79979 16.3379 8.7558 16.4162 8.67751C16.4945 8.59923 16.5385 8.49304 16.5385 8.38232C16.5385 8.27161 16.4945 8.16542 16.4162 8.08713C16.3379 8.00884 16.2317 7.96486 16.121 7.96486Z" fill="black" stroke="black" stroke-width="5.19008" mask="url(#path-1-inside-1_722_732)"/>
</g>
</svg>
